<?xml version="1.0" encoding="utf-8"?><svg viewBox="0 0 100 100" xmlns="http://www.w3.org/2000/svg" width="190px" height="190px" xmlns:xlink="http://www.w3.org/1999/xlink" style="width:100%;height:100%;background-size:initial;background-repeat-y:initial;background-repeat-x:initial;background-position-y:initial;background-position-x:initial;background-origin:initial;background-image:initial;background-color:rgb(241, 242, 243);background-clip:initial;background-attachment:initial;animation-play-state:paused" ><g class="ldl-scale" style="transform-origin:50% 50%;transform:rotate(0deg) scale(1, 1);animation-play-state:paused" ><circle fill="#849b87" r="10.876" cy="15.876" cx="50" style="fill:rgb(66, 103, 101);animation-play-state:paused" ></circle>
<g style="animation-play-state:paused" ><path fill="#849b87" d="M68.764 58.635a3.985 3.985 0 0 1-3.985-3.985v-6.642c0-8.149-6.63-14.779-14.779-14.779s-14.779 6.63-14.779 14.779v6.642a3.985 3.985 0 1 1-7.97 0v-6.642c0-12.544 10.205-22.749 22.749-22.749s22.749 10.205 22.749 22.749v6.642c0 2.2-1.784 3.985-3.985 3.985z" style="fill:rgb(66, 103, 101);animation-play-state:paused" ></path></g>
<path d="M38.417 32.167h23.167v33.667H38.417z" fill="#849b87" style="fill:rgb(66, 103, 101);animation-play-state:paused" ></path>
<path fill="#849b87" d="M43.399 53.487a4.94 4.94 0 0 0-4.94 4.94V90.06a4.94 4.94 0 0 0 9.88 0V58.427a4.94 4.94 0 0 0-4.94-4.94z" style="fill:rgb(66, 103, 101);animation-play-state:paused" ></path>
<path fill="#849b87" d="M56.601 53.487a4.94 4.94 0 0 1 4.94 4.94V90.06a4.94 4.94 0 0 1-9.88 0V58.427a4.94 4.94 0 0 1 4.94-4.94z" style="fill:rgb(66, 103, 101);animation-play-state:paused" ></path>
<metadata xmlns:d="https://loading.io/stock/" style="animation-play-state:paused" ><d:name style="animation-play-state:paused" >man</d:name>


<d:tags style="animation-play-state:paused" >man,people,character,person,figure,idol,doll</d:tags>


<d:license style="animation-play-state:paused" >by</d:license>


<d:slug style="animation-play-state:paused" >mq5ux</d:slug></metadata></g><!-- generated by https://loading.io/ --></svg>