<svg id="_лой_1" data-name="‘лой_1" xmlns="http://www.w3.org/2000/svg" viewBox="0 0 631.65 713.68"><defs><style>.cls-1{fill:#d0cdb1;}</style></defs><path class="cls-1" d="M316.68,437.94c37,0,74-.25,111,.05,98.14.79,177.61,47.56,194.6,114.37,5.13,20.17,7.08,40.77-12.22,57.59-12.78,11.14-29.08,20.75-45.79,29-86.49,42.82-182.68,61.19-287.74,54.51-90.4-5.75-170.25-30.14-239.65-71.56C11.26,606.6,4.1,586,8,563.18c12.55-73.36,93.2-124.46,197.61-125.2C242.65,437.72,279.66,437.94,316.68,437.94Z"/><path class="cls-1" d="M508.29,198.23C508.83,304.29,421.56,392,314.9,392.59S120,305.13,120.23,198.39,207.23,5,314.15,4.91,507.73,91.21,508.29,198.23Z"/></svg>